<svg width="258" height="352" viewBox="0 0 258 352" fill="none" xmlns="http://www.w3.org/2000/svg">
<rect width="258" height="352" rx="20" fill="white"/>
<path d="M62.6523 75.7227L57.7988 90H54.498L49.6543 75.7227H52.7109L55.3965 84.2188C55.4421 84.362 55.5169 84.6322 55.6211 85.0293C55.7253 85.4199 55.8294 85.8366 55.9336 86.2793C56.0443 86.7155 56.1191 87.0768 56.1582 87.3633C56.1973 87.0768 56.2656 86.7155 56.3633 86.2793C56.4674 85.8431 56.5684 85.4297 56.666 85.0391C56.7702 84.6419 56.8451 84.3685 56.8906 84.2188L59.5957 75.7227H62.6523ZM68.6973 78.8574C70.1621 78.8574 71.2852 79.1764 72.0664 79.8145C72.8477 80.4525 73.2383 81.4225 73.2383 82.7246V90H71.1582L70.582 88.5156H70.5039C70.1914 88.9062 69.8724 89.2253 69.5469 89.4727C69.2214 89.7201 68.847 89.9023 68.4238 90.0195C68.0007 90.1367 67.4863 90.1953 66.8809 90.1953C66.2363 90.1953 65.6569 90.0716 65.1426 89.8242C64.6348 89.5768 64.2344 89.1992 63.9414 88.6914C63.6484 88.1771 63.502 87.526 63.502 86.7383C63.502 85.5794 63.9089 84.7266 64.7227 84.1797C65.5365 83.6263 66.7572 83.3203 68.3848 83.2617L70.2793 83.2031V82.7246C70.2793 82.1517 70.1296 81.7318 69.8301 81.4648C69.5306 81.1979 69.1139 81.0645 68.5801 81.0645C68.0527 81.0645 67.5352 81.1393 67.0273 81.2891C66.5195 81.4388 66.0117 81.6276 65.5039 81.8555L64.5176 79.8438C65.097 79.5378 65.7448 79.2969 66.4609 79.1211C67.1836 78.9453 67.929 78.8574 68.6973 78.8574ZM70.2793 84.9414L69.127 84.9805C68.1634 85.0065 67.4928 85.179 67.1152 85.498C66.7441 85.8171 66.5586 86.237 66.5586 86.7578C66.5586 87.2135 66.6921 87.5391 66.959 87.7344C67.2259 87.9232 67.5742 88.0176 68.0039 88.0176C68.6419 88.0176 69.179 87.8288 69.6152 87.4512C70.0579 87.0736 70.2793 86.5365 70.2793 85.8398V84.9414ZM89.1367 78.877C90.3737 78.877 91.3079 79.196 91.9395 79.834C92.5775 80.4655 92.8965 81.4811 92.8965 82.8809V90H89.9082V83.623C89.9082 82.8418 89.7747 82.2526 89.5078 81.8555C89.2409 81.4583 88.8275 81.2598 88.2676 81.2598C87.4798 81.2598 86.9199 81.543 86.5879 82.1094C86.2559 82.6693 86.0898 83.4733 86.0898 84.5215V90H83.1113V83.623C83.1113 83.1022 83.0527 82.666 82.9355 82.3145C82.8184 81.9629 82.6393 81.6992 82.3984 81.5234C82.1576 81.3477 81.8483 81.2598 81.4707 81.2598C80.9173 81.2598 80.4811 81.3997 80.1621 81.6797C79.8496 81.9531 79.625 82.36 79.4883 82.9004C79.3581 83.4342 79.293 84.0885 79.293 84.8633V90H76.3145V79.082H78.5898L78.9902 80.4785H79.1562C79.3776 80.1009 79.6543 79.7949 79.9863 79.5605C80.3249 79.3262 80.696 79.1536 81.0996 79.043C81.5033 78.9323 81.9134 78.877 82.3301 78.877C83.1309 78.877 83.8079 79.0072 84.3613 79.2676C84.9212 79.528 85.3509 79.9316 85.6504 80.4785H85.9141C86.2396 79.9186 86.6986 79.5117 87.291 79.2578C87.89 79.0039 88.5052 78.877 89.1367 78.877ZM105.885 84.5215C105.885 85.4329 105.761 86.2402 105.514 86.9434C105.273 87.6465 104.918 88.2422 104.449 88.7305C103.987 89.2122 103.427 89.5768 102.77 89.8242C102.118 90.0716 101.383 90.1953 100.562 90.1953C99.7943 90.1953 99.0879 90.0716 98.4434 89.8242C97.8053 89.5768 97.2487 89.2122 96.7734 88.7305C96.3047 88.2422 95.9401 87.6465 95.6797 86.9434C95.4258 86.2402 95.2988 85.4329 95.2988 84.5215C95.2988 83.3105 95.5137 82.2852 95.9434 81.4453C96.373 80.6055 96.985 79.9674 97.7793 79.5312C98.5736 79.0951 99.5208 78.877 100.621 78.877C101.643 78.877 102.548 79.0951 103.336 79.5312C104.13 79.9674 104.752 80.6055 105.201 81.4453C105.657 82.2852 105.885 83.3105 105.885 84.5215ZM98.3359 84.5215C98.3359 85.2376 98.4141 85.8398 98.5703 86.3281C98.7266 86.8164 98.9707 87.1842 99.3027 87.4316C99.6348 87.679 100.068 87.8027 100.602 87.8027C101.129 87.8027 101.555 87.679 101.881 87.4316C102.213 87.1842 102.454 86.8164 102.604 86.3281C102.76 85.8398 102.838 85.2376 102.838 84.5215C102.838 83.7988 102.76 83.1999 102.604 82.7246C102.454 82.2428 102.213 81.8815 101.881 81.6406C101.549 81.3997 101.116 81.2793 100.582 81.2793C99.7943 81.2793 99.2214 81.5495 98.8633 82.0898C98.5117 82.6302 98.3359 83.4408 98.3359 84.5215ZM115.963 86.7578C115.963 87.5 115.787 88.1283 115.436 88.6426C115.09 89.1504 114.573 89.5378 113.883 89.8047C113.193 90.0651 112.333 90.1953 111.305 90.1953C110.543 90.1953 109.889 90.1465 109.342 90.0488C108.801 89.9512 108.255 89.7884 107.701 89.5605V87.0996C108.294 87.3665 108.928 87.5879 109.605 87.7637C110.289 87.9329 110.888 88.0176 111.402 88.0176C111.982 88.0176 112.395 87.9329 112.643 87.7637C112.896 87.5879 113.023 87.36 113.023 87.0801C113.023 86.8978 112.971 86.735 112.867 86.5918C112.77 86.4421 112.555 86.276 112.223 86.0938C111.891 85.9049 111.37 85.6608 110.66 85.3613C109.977 85.0749 109.413 84.7852 108.971 84.4922C108.535 84.1992 108.209 83.8542 107.994 83.457C107.786 83.0534 107.682 82.5423 107.682 81.9238C107.682 80.9147 108.072 80.1562 108.854 79.6484C109.641 79.1341 110.693 78.877 112.008 78.877C112.685 78.877 113.329 78.9453 113.941 79.082C114.56 79.2188 115.195 79.4368 115.846 79.7363L114.947 81.8848C114.407 81.6504 113.896 81.4583 113.414 81.3086C112.939 81.1589 112.454 81.084 111.959 81.084C111.523 81.084 111.194 81.1426 110.973 81.2598C110.751 81.377 110.641 81.556 110.641 81.7969C110.641 81.9727 110.696 82.1289 110.807 82.2656C110.924 82.4023 111.145 82.5553 111.471 82.7246C111.803 82.8874 112.288 83.099 112.926 83.3594C113.544 83.6133 114.081 83.8802 114.537 84.1602C114.993 84.4336 115.344 84.7754 115.592 85.1855C115.839 85.5892 115.963 86.1133 115.963 86.7578ZM129.518 81.3184H126.939V90H123.961V81.3184H122.32V79.8828L123.961 79.082V78.2812C123.961 77.3503 124.117 76.6276 124.43 76.1133C124.749 75.5924 125.195 75.2279 125.768 75.0195C126.347 74.8047 127.031 74.6973 127.818 74.6973C128.398 74.6973 128.925 74.7461 129.4 74.8438C129.876 74.9349 130.263 75.0391 130.562 75.1562L129.801 77.3438C129.573 77.2721 129.326 77.207 129.059 77.1484C128.792 77.0898 128.486 77.0605 128.141 77.0605C127.724 77.0605 127.418 77.1875 127.223 77.4414C127.034 77.6888 126.939 78.0078 126.939 78.3984V79.082H129.518V81.3184ZM134.205 79.082V90H131.227V79.082H134.205ZM132.721 74.8047C133.163 74.8047 133.544 74.9089 133.863 75.1172C134.182 75.319 134.342 75.6999 134.342 76.2598C134.342 76.8132 134.182 77.1973 133.863 77.4121C133.544 77.6204 133.163 77.7246 132.721 77.7246C132.271 77.7246 131.887 77.6204 131.568 77.4121C131.256 77.1973 131.1 76.8132 131.1 76.2598C131.1 75.6999 131.256 75.319 131.568 75.1172C131.887 74.9089 132.271 74.8047 132.721 74.8047ZM140.309 90H137.33V74.8047H140.309V90ZM148.043 87.8223C148.368 87.8223 148.684 87.7897 148.99 87.7246C149.303 87.6595 149.612 87.5781 149.918 87.4805V89.6973C149.599 89.8405 149.202 89.9577 148.727 90.0488C148.258 90.1465 147.743 90.1953 147.184 90.1953C146.533 90.1953 145.947 90.0911 145.426 89.8828C144.911 89.668 144.505 89.3001 144.205 88.7793C143.912 88.252 143.766 87.5195 143.766 86.582V81.3184H142.34V80.0586L143.98 79.0625L144.84 76.7578H146.744V79.082H149.801V81.3184H146.744V86.582C146.744 86.9987 146.861 87.3112 147.096 87.5195C147.337 87.7214 147.652 87.8223 148.043 87.8223ZM158.229 78.877C158.378 78.877 158.551 78.8867 158.746 78.9062C158.948 78.9193 159.111 78.9388 159.234 78.9648L159.01 81.7578C158.912 81.7253 158.772 81.7025 158.59 81.6895C158.414 81.6699 158.261 81.6602 158.131 81.6602C157.747 81.6602 157.372 81.709 157.008 81.8066C156.65 81.9043 156.327 82.0638 156.041 82.2852C155.755 82.5 155.527 82.7865 155.357 83.1445C155.195 83.4961 155.113 83.929 155.113 84.4434V90H152.135V79.082H154.391L154.83 80.918H154.977C155.191 80.5469 155.458 80.2083 155.777 79.9023C156.103 79.5898 156.471 79.3424 156.881 79.1602C157.298 78.9714 157.747 78.877 158.229 78.877ZM165.689 78.8574C167.154 78.8574 168.277 79.1764 169.059 79.8145C169.84 80.4525 170.23 81.4225 170.23 82.7246V90H168.15L167.574 88.5156H167.496C167.184 88.9062 166.865 89.2253 166.539 89.4727C166.214 89.7201 165.839 89.9023 165.416 90.0195C164.993 90.1367 164.479 90.1953 163.873 90.1953C163.229 90.1953 162.649 90.0716 162.135 89.8242C161.627 89.5768 161.227 89.1992 160.934 88.6914C160.641 88.1771 160.494 87.526 160.494 86.7383C160.494 85.5794 160.901 84.7266 161.715 84.1797C162.529 83.6263 163.749 83.3203 165.377 83.2617L167.271 83.2031V82.7246C167.271 82.1517 167.122 81.7318 166.822 81.4648C166.523 81.1979 166.106 81.0645 165.572 81.0645C165.045 81.0645 164.527 81.1393 164.02 81.2891C163.512 81.4388 163.004 81.6276 162.496 81.8555L161.51 79.8438C162.089 79.5378 162.737 79.2969 163.453 79.1211C164.176 78.9453 164.921 78.8574 165.689 78.8574ZM167.271 84.9414L166.119 84.9805C165.156 85.0065 164.485 85.179 164.107 85.498C163.736 85.8171 163.551 86.237 163.551 86.7578C163.551 87.2135 163.684 87.5391 163.951 87.7344C164.218 87.9232 164.566 88.0176 164.996 88.0176C165.634 88.0176 166.171 87.8288 166.607 87.4512C167.05 87.0736 167.271 86.5365 167.271 85.8398V84.9414ZM179.4 78.877C179.55 78.877 179.723 78.8867 179.918 78.9062C180.12 78.9193 180.283 78.9388 180.406 78.9648L180.182 81.7578C180.084 81.7253 179.944 81.7025 179.762 81.6895C179.586 81.6699 179.433 81.6602 179.303 81.6602C178.919 81.6602 178.544 81.709 178.18 81.8066C177.822 81.9043 177.499 82.0638 177.213 82.2852C176.926 82.5 176.699 82.7865 176.529 83.1445C176.367 83.4961 176.285 83.929 176.285 84.4434V90H173.307V79.082H175.562L176.002 80.918H176.148C176.363 80.5469 176.63 80.2083 176.949 79.9023C177.275 79.5898 177.643 79.3424 178.053 79.1602C178.469 78.9714 178.919 78.877 179.4 78.877ZM197.506 84.5215C197.506 85.4329 197.382 86.2402 197.135 86.9434C196.894 87.6465 196.539 88.2422 196.07 88.7305C195.608 89.2122 195.048 89.5768 194.391 89.8242C193.74 90.0716 193.004 90.1953 192.184 90.1953C191.415 90.1953 190.709 90.0716 190.064 89.8242C189.426 89.5768 188.87 89.2122 188.395 88.7305C187.926 88.2422 187.561 87.6465 187.301 86.9434C187.047 86.2402 186.92 85.4329 186.92 84.5215C186.92 83.3105 187.135 82.2852 187.564 81.4453C187.994 80.6055 188.606 79.9674 189.4 79.5312C190.195 79.0951 191.142 78.877 192.242 78.877C193.264 78.877 194.169 79.0951 194.957 79.5312C195.751 79.9674 196.373 80.6055 196.822 81.4453C197.278 82.2852 197.506 83.3105 197.506 84.5215ZM189.957 84.5215C189.957 85.2376 190.035 85.8398 190.191 86.3281C190.348 86.8164 190.592 87.1842 190.924 87.4316C191.256 87.679 191.689 87.8027 192.223 87.8027C192.75 87.8027 193.176 87.679 193.502 87.4316C193.834 87.1842 194.075 86.8164 194.225 86.3281C194.381 85.8398 194.459 85.2376 194.459 84.5215C194.459 83.7988 194.381 83.1999 194.225 82.7246C194.075 82.2428 193.834 81.8815 193.502 81.6406C193.17 81.3997 192.737 81.2793 192.203 81.2793C191.415 81.2793 190.842 81.5495 190.484 82.0898C190.133 82.6302 189.957 83.4408 189.957 84.5215ZM207.584 86.7578C207.584 87.5 207.408 88.1283 207.057 88.6426C206.712 89.1504 206.194 89.5378 205.504 89.8047C204.814 90.0651 203.954 90.1953 202.926 90.1953C202.164 90.1953 201.51 90.1465 200.963 90.0488C200.423 89.9512 199.876 89.7884 199.322 89.5605V87.0996C199.915 87.3665 200.549 87.5879 201.227 87.7637C201.91 87.9329 202.509 88.0176 203.023 88.0176C203.603 88.0176 204.016 87.9329 204.264 87.7637C204.518 87.5879 204.645 87.36 204.645 87.0801C204.645 86.8978 204.592 86.735 204.488 86.5918C204.391 86.4421 204.176 86.276 203.844 86.0938C203.512 85.9049 202.991 85.6608 202.281 85.3613C201.598 85.0749 201.035 84.7852 200.592 84.4922C200.156 84.1992 199.83 83.8542 199.615 83.457C199.407 83.0534 199.303 82.5423 199.303 81.9238C199.303 80.9147 199.693 80.1562 200.475 79.6484C201.262 79.1341 202.314 78.877 203.629 78.877C204.306 78.877 204.951 78.9453 205.562 79.082C206.181 79.2188 206.816 79.4368 207.467 79.7363L206.568 81.8848C206.028 81.6504 205.517 81.4583 205.035 81.3086C204.56 81.1589 204.075 81.084 203.58 81.084C203.144 81.084 202.815 81.1426 202.594 81.2598C202.372 81.377 202.262 81.556 202.262 81.7969C202.262 81.9727 202.317 82.1289 202.428 82.2656C202.545 82.4023 202.766 82.5553 203.092 82.7246C203.424 82.8874 203.909 83.099 204.547 83.3594C205.165 83.6133 205.702 83.8802 206.158 84.1602C206.614 84.4336 206.965 84.7754 207.213 85.1855C207.46 85.5892 207.584 86.1133 207.584 86.7578ZM29.9961 105.877C31.2331 105.877 32.1673 106.196 32.7988 106.834C33.4368 107.465 33.7559 108.481 33.7559 109.881V117H30.7676V110.623C30.7676 109.842 30.6341 109.253 30.3672 108.855C30.1003 108.458 29.6868 108.26 29.127 108.26C28.3392 108.26 27.7793 108.543 27.4473 109.109C27.1152 109.669 26.9492 110.473 26.9492 111.521V117H23.9707V110.623C23.9707 110.102 23.9121 109.666 23.7949 109.314C23.6777 108.963 23.4987 108.699 23.2578 108.523C23.0169 108.348 22.7077 108.26 22.3301 108.26C21.7767 108.26 21.3405 108.4 21.0215 108.68C20.709 108.953 20.4844 109.36 20.3477 109.9C20.2174 110.434 20.1523 111.089 20.1523 111.863V117H17.1738V106.082H19.4492L19.8496 107.479H20.0156C20.237 107.101 20.5137 106.795 20.8457 106.561C21.1842 106.326 21.5553 106.154 21.959 106.043C22.3626 105.932 22.7728 105.877 23.1895 105.877C23.9902 105.877 24.6673 106.007 25.2207 106.268C25.7806 106.528 26.2103 106.932 26.5098 107.479H26.7734C27.099 106.919 27.5579 106.512 28.1504 106.258C28.7493 106.004 29.3646 105.877 29.9961 105.877ZM41.3242 105.877C42.3333 105.877 43.2025 106.072 43.9316 106.463C44.6608 106.847 45.224 107.407 45.6211 108.143C46.0182 108.878 46.2168 109.777 46.2168 110.838V112.283H39.1758C39.2083 113.123 39.459 113.784 39.9277 114.266C40.403 114.741 41.0605 114.979 41.9004 114.979C42.597 114.979 43.235 114.907 43.8145 114.764C44.3939 114.62 44.9896 114.406 45.6016 114.119V116.424C45.0612 116.691 44.4948 116.886 43.9023 117.01C43.3164 117.133 42.6035 117.195 41.7637 117.195C40.6699 117.195 39.6999 116.993 38.8535 116.59C38.0137 116.186 37.3529 115.571 36.8711 114.744C36.3958 113.917 36.1582 112.876 36.1582 111.619C36.1582 110.343 36.373 109.282 36.8027 108.436C37.2389 107.583 37.8444 106.945 38.6191 106.521C39.3939 106.092 40.2956 105.877 41.3242 105.877ZM41.3438 107.996C40.7643 107.996 40.2826 108.182 39.8984 108.553C39.5208 108.924 39.3027 109.507 39.2441 110.301H43.4238C43.4173 109.858 43.3359 109.464 43.1797 109.119C43.0299 108.774 42.8021 108.501 42.4961 108.299C42.1966 108.097 41.8125 107.996 41.3438 107.996ZM51.6172 117H48.6387V101.805H51.6172V117ZM57.7305 101.805V104.9C57.7305 105.441 57.7109 105.955 57.6719 106.443C57.6393 106.932 57.6133 107.277 57.5938 107.479H57.75C57.9844 107.101 58.2611 106.795 58.5801 106.561C58.9056 106.326 59.2637 106.154 59.6543 106.043C60.0449 105.932 60.4648 105.877 60.9141 105.877C61.7018 105.877 62.3887 106.017 62.9746 106.297C63.5605 106.57 64.0163 107.003 64.3418 107.596C64.6673 108.182 64.8301 108.943 64.8301 109.881V117H61.8516V110.623C61.8516 109.842 61.7083 109.253 61.4219 108.855C61.1354 108.458 60.6927 108.26 60.0938 108.26C59.4948 108.26 59.0228 108.4 58.6777 108.68C58.3327 108.953 58.0885 109.36 57.9453 109.9C57.8021 110.434 57.7305 111.089 57.7305 111.863V117H54.752V101.805H57.7305ZM77.8184 111.521C77.8184 112.433 77.6947 113.24 77.4473 113.943C77.2064 114.646 76.8516 115.242 76.3828 115.73C75.9206 116.212 75.3607 116.577 74.7031 116.824C74.0521 117.072 73.3164 117.195 72.4961 117.195C71.7279 117.195 71.0215 117.072 70.377 116.824C69.7389 116.577 69.1823 116.212 68.707 115.73C68.2383 115.242 67.8737 114.646 67.6133 113.943C67.3594 113.24 67.2324 112.433 67.2324 111.521C67.2324 110.311 67.4473 109.285 67.877 108.445C68.3066 107.605 68.9186 106.967 69.7129 106.531C70.5072 106.095 71.4544 105.877 72.5547 105.877C73.5768 105.877 74.4818 106.095 75.2695 106.531C76.0638 106.967 76.6855 107.605 77.1348 108.445C77.5905 109.285 77.8184 110.311 77.8184 111.521ZM70.2695 111.521C70.2695 112.238 70.3477 112.84 70.5039 113.328C70.6602 113.816 70.9043 114.184 71.2363 114.432C71.5684 114.679 72.0013 114.803 72.5352 114.803C73.0625 114.803 73.4889 114.679 73.8145 114.432C74.1465 114.184 74.3874 113.816 74.5371 113.328C74.6934 112.84 74.7715 112.238 74.7715 111.521C74.7715 110.799 74.6934 110.2 74.5371 109.725C74.3874 109.243 74.1465 108.882 73.8145 108.641C73.4824 108.4 73.0495 108.279 72.5156 108.279C71.7279 108.279 71.1549 108.549 70.7969 109.09C70.4453 109.63 70.2695 110.441 70.2695 111.521ZM86.373 105.877C86.5228 105.877 86.6953 105.887 86.8906 105.906C87.0924 105.919 87.2552 105.939 87.3789 105.965L87.1543 108.758C87.0566 108.725 86.9167 108.702 86.7344 108.689C86.5586 108.67 86.4056 108.66 86.2754 108.66C85.8913 108.66 85.5169 108.709 85.1523 108.807C84.7943 108.904 84.472 109.064 84.1855 109.285C83.8991 109.5 83.6712 109.786 83.502 110.145C83.3392 110.496 83.2578 110.929 83.2578 111.443V117H80.2793V106.082H82.5352L82.9746 107.918H83.1211C83.3359 107.547 83.6029 107.208 83.9219 106.902C84.2474 106.59 84.6152 106.342 85.0254 106.16C85.4421 105.971 85.8913 105.877 86.373 105.877ZM93.8633 105.877C94.8724 105.877 95.7415 106.072 96.4707 106.463C97.1999 106.847 97.763 107.407 98.1602 108.143C98.5573 108.878 98.7559 109.777 98.7559 110.838V112.283H91.7148C91.7474 113.123 91.998 113.784 92.4668 114.266C92.9421 114.741 93.5996 114.979 94.4395 114.979C95.1361 114.979 95.7741 114.907 96.3535 114.764C96.9329 114.62 97.5286 114.406 98.1406 114.119V116.424C97.6003 116.691 97.0339 116.886 96.4414 117.01C95.8555 117.133 95.1426 117.195 94.3027 117.195C93.209 117.195 92.2389 116.993 91.3926 116.59C90.5527 116.186 89.8919 115.571 89.4102 114.744C88.9349 113.917 88.6973 112.876 88.6973 111.619C88.6973 110.343 88.9121 109.282 89.3418 108.436C89.778 107.583 90.3835 106.945 91.1582 106.521C91.9329 106.092 92.8346 105.877 93.8633 105.877ZM93.8828 107.996C93.3034 107.996 92.8216 108.182 92.4375 108.553C92.0599 108.924 91.8418 109.507 91.7832 110.301H95.9629C95.9564 109.858 95.875 109.464 95.7188 109.119C95.569 108.774 95.3411 108.501 95.0352 108.299C94.7357 108.097 94.3516 107.996 93.8828 107.996ZM108.795 113.758C108.795 114.5 108.619 115.128 108.268 115.643C107.923 116.15 107.405 116.538 106.715 116.805C106.025 117.065 105.165 117.195 104.137 117.195C103.375 117.195 102.721 117.146 102.174 117.049C101.633 116.951 101.087 116.788 100.533 116.561V114.1C101.126 114.367 101.76 114.588 102.438 114.764C103.121 114.933 103.72 115.018 104.234 115.018C104.814 115.018 105.227 114.933 105.475 114.764C105.729 114.588 105.855 114.36 105.855 114.08C105.855 113.898 105.803 113.735 105.699 113.592C105.602 113.442 105.387 113.276 105.055 113.094C104.723 112.905 104.202 112.661 103.492 112.361C102.809 112.075 102.245 111.785 101.803 111.492C101.367 111.199 101.041 110.854 100.826 110.457C100.618 110.053 100.514 109.542 100.514 108.924C100.514 107.915 100.904 107.156 101.686 106.648C102.473 106.134 103.525 105.877 104.84 105.877C105.517 105.877 106.161 105.945 106.773 106.082C107.392 106.219 108.027 106.437 108.678 106.736L107.779 108.885C107.239 108.65 106.728 108.458 106.246 108.309C105.771 108.159 105.286 108.084 104.791 108.084C104.355 108.084 104.026 108.143 103.805 108.26C103.583 108.377 103.473 108.556 103.473 108.797C103.473 108.973 103.528 109.129 103.639 109.266C103.756 109.402 103.977 109.555 104.303 109.725C104.635 109.887 105.12 110.099 105.758 110.359C106.376 110.613 106.913 110.88 107.369 111.16C107.825 111.434 108.176 111.775 108.424 112.186C108.671 112.589 108.795 113.113 108.795 113.758ZM122.389 105.877C123.619 105.877 124.612 106.355 125.367 107.312C126.129 108.27 126.51 109.673 126.51 111.521C126.51 112.758 126.331 113.8 125.973 114.646C125.615 115.486 125.12 116.121 124.488 116.551C123.857 116.98 123.131 117.195 122.311 117.195C121.783 117.195 121.331 117.13 120.953 117C120.576 116.863 120.253 116.691 119.986 116.482C119.719 116.268 119.488 116.04 119.293 115.799H119.137C119.189 116.059 119.228 116.326 119.254 116.6C119.28 116.873 119.293 117.14 119.293 117.4V121.805H116.314V106.082H118.736L119.156 107.498H119.293C119.488 107.205 119.726 106.935 120.006 106.688C120.286 106.44 120.621 106.245 121.012 106.102C121.409 105.952 121.868 105.877 122.389 105.877ZM121.432 108.26C120.911 108.26 120.497 108.367 120.191 108.582C119.885 108.797 119.661 109.119 119.518 109.549C119.381 109.979 119.306 110.522 119.293 111.18V111.502C119.293 112.205 119.358 112.801 119.488 113.289C119.625 113.777 119.85 114.148 120.162 114.402C120.481 114.656 120.917 114.783 121.471 114.783C121.926 114.783 122.301 114.656 122.594 114.402C122.887 114.148 123.105 113.777 123.248 113.289C123.398 112.794 123.473 112.192 123.473 111.482C123.473 110.415 123.307 109.611 122.975 109.07C122.643 108.53 122.128 108.26 121.432 108.26ZM135.064 105.877C135.214 105.877 135.387 105.887 135.582 105.906C135.784 105.919 135.947 105.939 136.07 105.965L135.846 108.758C135.748 108.725 135.608 108.702 135.426 108.689C135.25 108.67 135.097 108.66 134.967 108.66C134.583 108.66 134.208 108.709 133.844 108.807C133.486 108.904 133.163 109.064 132.877 109.285C132.59 109.5 132.363 109.786 132.193 110.145C132.031 110.496 131.949 110.929 131.949 111.443V117H128.971V106.082H131.227L131.666 107.918H131.812C132.027 107.547 132.294 107.208 132.613 106.902C132.939 106.59 133.307 106.342 133.717 106.16C134.133 105.971 134.583 105.877 135.064 105.877ZM147.975 111.521C147.975 112.433 147.851 113.24 147.604 113.943C147.363 114.646 147.008 115.242 146.539 115.73C146.077 116.212 145.517 116.577 144.859 116.824C144.208 117.072 143.473 117.195 142.652 117.195C141.884 117.195 141.178 117.072 140.533 116.824C139.895 116.577 139.339 116.212 138.863 115.73C138.395 115.242 138.03 114.646 137.77 113.943C137.516 113.24 137.389 112.433 137.389 111.521C137.389 110.311 137.604 109.285 138.033 108.445C138.463 107.605 139.075 106.967 139.869 106.531C140.663 106.095 141.611 105.877 142.711 105.877C143.733 105.877 144.638 106.095 145.426 106.531C146.22 106.967 146.842 107.605 147.291 108.445C147.747 109.285 147.975 110.311 147.975 111.521ZM140.426 111.521C140.426 112.238 140.504 112.84 140.66 113.328C140.816 113.816 141.061 114.184 141.393 114.432C141.725 114.679 142.158 114.803 142.691 114.803C143.219 114.803 143.645 114.679 143.971 114.432C144.303 114.184 144.544 113.816 144.693 113.328C144.85 112.84 144.928 112.238 144.928 111.521C144.928 110.799 144.85 110.2 144.693 109.725C144.544 109.243 144.303 108.882 143.971 108.641C143.639 108.4 143.206 108.279 142.672 108.279C141.884 108.279 141.311 108.549 140.953 109.09C140.602 109.63 140.426 110.441 140.426 111.521ZM156.471 108.318H153.893V117H150.914V108.318H149.273V106.883L150.914 106.082V105.281C150.914 104.35 151.07 103.628 151.383 103.113C151.702 102.592 152.148 102.228 152.721 102.02C153.3 101.805 153.984 101.697 154.771 101.697C155.351 101.697 155.878 101.746 156.354 101.844C156.829 101.935 157.216 102.039 157.516 102.156L156.754 104.344C156.526 104.272 156.279 104.207 156.012 104.148C155.745 104.09 155.439 104.061 155.094 104.061C154.677 104.061 154.371 104.188 154.176 104.441C153.987 104.689 153.893 105.008 153.893 105.398V106.082H156.471V108.318ZM161.158 106.082V117H158.18V106.082H161.158ZM159.674 101.805C160.117 101.805 160.497 101.909 160.816 102.117C161.135 102.319 161.295 102.7 161.295 103.26C161.295 103.813 161.135 104.197 160.816 104.412C160.497 104.62 160.117 104.725 159.674 104.725C159.225 104.725 158.84 104.62 158.521 104.412C158.209 104.197 158.053 103.813 158.053 103.26C158.053 102.7 158.209 102.319 158.521 102.117C158.84 101.909 159.225 101.805 159.674 101.805ZM171.9 113.758C171.9 114.5 171.725 115.128 171.373 115.643C171.028 116.15 170.51 116.538 169.82 116.805C169.13 117.065 168.271 117.195 167.242 117.195C166.48 117.195 165.826 117.146 165.279 117.049C164.739 116.951 164.192 116.788 163.639 116.561V114.1C164.231 114.367 164.866 114.588 165.543 114.764C166.227 114.933 166.826 115.018 167.34 115.018C167.919 115.018 168.333 114.933 168.58 114.764C168.834 114.588 168.961 114.36 168.961 114.08C168.961 113.898 168.909 113.735 168.805 113.592C168.707 113.442 168.492 113.276 168.16 113.094C167.828 112.905 167.307 112.661 166.598 112.361C165.914 112.075 165.351 111.785 164.908 111.492C164.472 111.199 164.146 110.854 163.932 110.457C163.723 110.053 163.619 109.542 163.619 108.924C163.619 107.915 164.01 107.156 164.791 106.648C165.579 106.134 166.63 105.877 167.945 105.877C168.622 105.877 169.267 105.945 169.879 106.082C170.497 106.219 171.132 106.437 171.783 106.736L170.885 108.885C170.344 108.65 169.833 108.458 169.352 108.309C168.876 108.159 168.391 108.084 167.896 108.084C167.46 108.084 167.132 108.143 166.91 108.26C166.689 108.377 166.578 108.556 166.578 108.797C166.578 108.973 166.633 109.129 166.744 109.266C166.861 109.402 167.083 109.555 167.408 109.725C167.74 109.887 168.225 110.099 168.863 110.359C169.482 110.613 170.019 110.88 170.475 111.16C170.93 111.434 171.282 111.775 171.529 112.186C171.777 112.589 171.9 113.113 171.9 113.758ZM181.842 113.758C181.842 114.5 181.666 115.128 181.314 115.643C180.969 116.15 180.452 116.538 179.762 116.805C179.072 117.065 178.212 117.195 177.184 117.195C176.422 117.195 175.768 117.146 175.221 117.049C174.68 116.951 174.133 116.788 173.58 116.561V114.1C174.173 114.367 174.807 114.588 175.484 114.764C176.168 114.933 176.767 115.018 177.281 115.018C177.861 115.018 178.274 114.933 178.521 114.764C178.775 114.588 178.902 114.36 178.902 114.08C178.902 113.898 178.85 113.735 178.746 113.592C178.648 113.442 178.434 113.276 178.102 113.094C177.77 112.905 177.249 112.661 176.539 112.361C175.855 112.075 175.292 111.785 174.85 111.492C174.413 111.199 174.088 110.854 173.873 110.457C173.665 110.053 173.561 109.542 173.561 108.924C173.561 107.915 173.951 107.156 174.732 106.648C175.52 106.134 176.572 105.877 177.887 105.877C178.564 105.877 179.208 105.945 179.82 106.082C180.439 106.219 181.074 106.437 181.725 106.736L180.826 108.885C180.286 108.65 179.775 108.458 179.293 108.309C178.818 108.159 178.333 108.084 177.838 108.084C177.402 108.084 177.073 108.143 176.852 108.26C176.63 108.377 176.52 108.556 176.52 108.797C176.52 108.973 176.575 109.129 176.686 109.266C176.803 109.402 177.024 109.555 177.35 109.725C177.682 109.887 178.167 110.099 178.805 110.359C179.423 110.613 179.96 110.88 180.416 111.16C180.872 111.434 181.223 111.775 181.471 112.186C181.718 112.589 181.842 113.113 181.842 113.758ZM187.145 106.082V117H184.166V106.082H187.145ZM185.66 101.805C186.103 101.805 186.484 101.909 186.803 102.117C187.122 102.319 187.281 102.7 187.281 103.26C187.281 103.813 187.122 104.197 186.803 104.412C186.484 104.62 186.103 104.725 185.66 104.725C185.211 104.725 184.827 104.62 184.508 104.412C184.195 104.197 184.039 103.813 184.039 103.26C184.039 102.7 184.195 102.319 184.508 102.117C184.827 101.909 185.211 101.805 185.66 101.805ZM200.201 111.521C200.201 112.433 200.077 113.24 199.83 113.943C199.589 114.646 199.234 115.242 198.766 115.73C198.303 116.212 197.743 116.577 197.086 116.824C196.435 117.072 195.699 117.195 194.879 117.195C194.111 117.195 193.404 117.072 192.76 116.824C192.122 116.577 191.565 116.212 191.09 115.73C190.621 115.242 190.257 114.646 189.996 113.943C189.742 113.24 189.615 112.433 189.615 111.521C189.615 110.311 189.83 109.285 190.26 108.445C190.689 107.605 191.301 106.967 192.096 106.531C192.89 106.095 193.837 105.877 194.938 105.877C195.96 105.877 196.865 106.095 197.652 106.531C198.447 106.967 199.068 107.605 199.518 108.445C199.973 109.285 200.201 110.311 200.201 111.521ZM192.652 111.521C192.652 112.238 192.73 112.84 192.887 113.328C193.043 113.816 193.287 114.184 193.619 114.432C193.951 114.679 194.384 114.803 194.918 114.803C195.445 114.803 195.872 114.679 196.197 114.432C196.529 114.184 196.77 113.816 196.92 113.328C197.076 112.84 197.154 112.238 197.154 111.521C197.154 110.799 197.076 110.2 196.92 109.725C196.77 109.243 196.529 108.882 196.197 108.641C195.865 108.4 195.432 108.279 194.898 108.279C194.111 108.279 193.538 108.549 193.18 109.09C192.828 109.63 192.652 110.441 192.652 111.521ZM208.863 105.877C210.029 105.877 210.966 106.196 211.676 106.834C212.385 107.465 212.74 108.481 212.74 109.881V117H209.762V110.623C209.762 109.842 209.618 109.253 209.332 108.855C209.052 108.458 208.609 108.26 208.004 108.26C207.092 108.26 206.471 108.569 206.139 109.188C205.807 109.806 205.641 110.698 205.641 111.863V117H202.662V106.082H204.938L205.338 107.479H205.504C205.738 107.101 206.028 106.795 206.373 106.561C206.725 106.326 207.112 106.154 207.535 106.043C207.965 105.932 208.408 105.877 208.863 105.877ZM220.279 105.857C221.744 105.857 222.867 106.176 223.648 106.814C224.43 107.452 224.82 108.423 224.82 109.725V117H222.74L222.164 115.516H222.086C221.773 115.906 221.454 116.225 221.129 116.473C220.803 116.72 220.429 116.902 220.006 117.02C219.583 117.137 219.068 117.195 218.463 117.195C217.818 117.195 217.239 117.072 216.725 116.824C216.217 116.577 215.816 116.199 215.523 115.691C215.23 115.177 215.084 114.526 215.084 113.738C215.084 112.579 215.491 111.727 216.305 111.18C217.118 110.626 218.339 110.32 219.967 110.262L221.861 110.203V109.725C221.861 109.152 221.712 108.732 221.412 108.465C221.113 108.198 220.696 108.064 220.162 108.064C219.635 108.064 219.117 108.139 218.609 108.289C218.102 108.439 217.594 108.628 217.086 108.855L216.1 106.844C216.679 106.538 217.327 106.297 218.043 106.121C218.766 105.945 219.511 105.857 220.279 105.857ZM221.861 111.941L220.709 111.98C219.745 112.007 219.075 112.179 218.697 112.498C218.326 112.817 218.141 113.237 218.141 113.758C218.141 114.214 218.274 114.539 218.541 114.734C218.808 114.923 219.156 115.018 219.586 115.018C220.224 115.018 220.761 114.829 221.197 114.451C221.64 114.074 221.861 113.536 221.861 112.84V111.941ZM230.875 106.082V117H227.896V106.082H230.875ZM229.391 101.805C229.833 101.805 230.214 101.909 230.533 102.117C230.852 102.319 231.012 102.7 231.012 103.26C231.012 103.813 230.852 104.197 230.533 104.412C230.214 104.62 229.833 104.725 229.391 104.725C228.941 104.725 228.557 104.62 228.238 104.412C227.926 104.197 227.77 103.813 227.77 103.26C227.77 102.7 227.926 102.319 228.238 102.117C228.557 101.909 228.941 101.805 229.391 101.805ZM241.627 113.758C241.627 114.5 241.451 115.128 241.1 115.643C240.755 116.15 240.237 116.538 239.547 116.805C238.857 117.065 237.997 117.195 236.969 117.195C236.207 117.195 235.553 117.146 235.006 117.049C234.465 116.951 233.919 116.788 233.365 116.561V114.1C233.958 114.367 234.592 114.588 235.27 114.764C235.953 114.933 236.552 115.018 237.066 115.018C237.646 115.018 238.059 114.933 238.307 114.764C238.561 114.588 238.688 114.36 238.688 114.08C238.688 113.898 238.635 113.735 238.531 113.592C238.434 113.442 238.219 113.276 237.887 113.094C237.555 112.905 237.034 112.661 236.324 112.361C235.641 112.075 235.077 111.785 234.635 111.492C234.199 111.199 233.873 110.854 233.658 110.457C233.45 110.053 233.346 109.542 233.346 108.924C233.346 107.915 233.736 107.156 234.518 106.648C235.305 106.134 236.357 105.877 237.672 105.877C238.349 105.877 238.993 105.945 239.605 106.082C240.224 106.219 240.859 106.437 241.51 106.736L240.611 108.885C240.071 108.65 239.56 108.458 239.078 108.309C238.603 108.159 238.118 108.084 237.623 108.084C237.187 108.084 236.858 108.143 236.637 108.26C236.415 108.377 236.305 108.556 236.305 108.797C236.305 108.973 236.36 109.129 236.471 109.266C236.588 109.402 236.809 109.555 237.135 109.725C237.467 109.887 237.952 110.099 238.59 110.359C239.208 110.613 239.745 110.88 240.201 111.16C240.657 111.434 241.008 111.775 241.256 112.186C241.503 112.589 241.627 113.113 241.627 113.758ZM85.2891 132.877C86.5195 132.877 87.5124 133.355 88.2676 134.312C89.0293 135.27 89.4102 136.673 89.4102 138.521C89.4102 139.758 89.2311 140.8 88.873 141.646C88.515 142.486 88.0202 143.121 87.3887 143.551C86.7572 143.98 86.0312 144.195 85.2109 144.195C84.6836 144.195 84.2311 144.13 83.8535 144C83.4759 143.863 83.1536 143.691 82.8867 143.482C82.6198 143.268 82.3887 143.04 82.1934 142.799H82.0371C82.0892 143.059 82.1283 143.326 82.1543 143.6C82.1803 143.873 82.1934 144.14 82.1934 144.4V148.805H79.2148V133.082H81.6367L82.0566 134.498H82.1934C82.3887 134.205 82.6263 133.935 82.9062 133.688C83.1862 133.44 83.5215 133.245 83.9121 133.102C84.3092 132.952 84.7682 132.877 85.2891 132.877ZM84.332 135.26C83.8112 135.26 83.3978 135.367 83.0918 135.582C82.7858 135.797 82.5612 136.119 82.418 136.549C82.2812 136.979 82.2064 137.522 82.1934 138.18V138.502C82.1934 139.205 82.2585 139.801 82.3887 140.289C82.5254 140.777 82.75 141.148 83.0625 141.402C83.3815 141.656 83.8177 141.783 84.3711 141.783C84.8268 141.783 85.2012 141.656 85.4941 141.402C85.7871 141.148 86.0052 140.777 86.1484 140.289C86.2982 139.794 86.373 139.192 86.373 138.482C86.373 137.415 86.207 136.611 85.875 136.07C85.543 135.53 85.0286 135.26 84.332 135.26ZM96.3438 132.857C97.8086 132.857 98.9316 133.176 99.7129 133.814C100.494 134.452 100.885 135.423 100.885 136.725V144H98.8047L98.2285 142.516H98.1504C97.8379 142.906 97.5189 143.225 97.1934 143.473C96.8678 143.72 96.4935 143.902 96.0703 144.02C95.6471 144.137 95.1328 144.195 94.5273 144.195C93.8828 144.195 93.3034 144.072 92.7891 143.824C92.2812 143.577 91.8809 143.199 91.5879 142.691C91.2949 142.177 91.1484 141.526 91.1484 140.738C91.1484 139.579 91.5553 138.727 92.3691 138.18C93.1829 137.626 94.4036 137.32 96.0312 137.262L97.9258 137.203V136.725C97.9258 136.152 97.776 135.732 97.4766 135.465C97.1771 135.198 96.7604 135.064 96.2266 135.064C95.6992 135.064 95.1816 135.139 94.6738 135.289C94.166 135.439 93.6582 135.628 93.1504 135.855L92.1641 133.844C92.7435 133.538 93.3913 133.297 94.1074 133.121C94.8301 132.945 95.5755 132.857 96.3438 132.857ZM97.9258 138.941L96.7734 138.98C95.8099 139.007 95.1393 139.179 94.7617 139.498C94.3906 139.817 94.2051 140.237 94.2051 140.758C94.2051 141.214 94.3385 141.539 94.6055 141.734C94.8724 141.923 95.2207 142.018 95.6504 142.018C96.2884 142.018 96.8255 141.829 97.2617 141.451C97.7044 141.074 97.9258 140.536 97.9258 139.84V138.941ZM110.055 132.877C110.204 132.877 110.377 132.887 110.572 132.906C110.774 132.919 110.937 132.939 111.061 132.965L110.836 135.758C110.738 135.725 110.598 135.702 110.416 135.689C110.24 135.67 110.087 135.66 109.957 135.66C109.573 135.66 109.199 135.709 108.834 135.807C108.476 135.904 108.154 136.064 107.867 136.285C107.581 136.5 107.353 136.786 107.184 137.145C107.021 137.496 106.939 137.929 106.939 138.443V144H103.961V133.082H106.217L106.656 134.918H106.803C107.018 134.547 107.285 134.208 107.604 133.902C107.929 133.59 108.297 133.342 108.707 133.16C109.124 132.971 109.573 132.877 110.055 132.877ZM117.516 132.857C118.98 132.857 120.104 133.176 120.885 133.814C121.666 134.452 122.057 135.423 122.057 136.725V144H119.977L119.4 142.516H119.322C119.01 142.906 118.691 143.225 118.365 143.473C118.04 143.72 117.665 143.902 117.242 144.02C116.819 144.137 116.305 144.195 115.699 144.195C115.055 144.195 114.475 144.072 113.961 143.824C113.453 143.577 113.053 143.199 112.76 142.691C112.467 142.177 112.32 141.526 112.32 140.738C112.32 139.579 112.727 138.727 113.541 138.18C114.355 137.626 115.576 137.32 117.203 137.262L119.098 137.203V136.725C119.098 136.152 118.948 135.732 118.648 135.465C118.349 135.198 117.932 135.064 117.398 135.064C116.871 135.064 116.354 135.139 115.846 135.289C115.338 135.439 114.83 135.628 114.322 135.855L113.336 133.844C113.915 133.538 114.563 133.297 115.279 133.121C116.002 132.945 116.747 132.857 117.516 132.857ZM119.098 138.941L117.945 138.98C116.982 139.007 116.311 139.179 115.934 139.498C115.562 139.817 115.377 140.237 115.377 140.758C115.377 141.214 115.51 141.539 115.777 141.734C116.044 141.923 116.393 142.018 116.822 142.018C117.46 142.018 117.997 141.829 118.434 141.451C118.876 141.074 119.098 140.536 119.098 139.84V138.941ZM132.926 144L128.766 133.082H131.881L133.99 139.303C134.107 139.667 134.199 140.051 134.264 140.455C134.335 140.859 134.384 141.22 134.41 141.539H134.488C134.508 141.194 134.553 140.826 134.625 140.436C134.703 140.045 134.804 139.667 134.928 139.303L137.027 133.082H140.143L135.982 144H132.926ZM151.637 138.521C151.637 139.433 151.513 140.24 151.266 140.943C151.025 141.646 150.67 142.242 150.201 142.73C149.739 143.212 149.179 143.577 148.521 143.824C147.87 144.072 147.135 144.195 146.314 144.195C145.546 144.195 144.84 144.072 144.195 143.824C143.557 143.577 143.001 143.212 142.525 142.73C142.057 142.242 141.692 141.646 141.432 140.943C141.178 140.24 141.051 139.433 141.051 138.521C141.051 137.311 141.266 136.285 141.695 135.445C142.125 134.605 142.737 133.967 143.531 133.531C144.326 133.095 145.273 132.877 146.373 132.877C147.395 132.877 148.3 133.095 149.088 133.531C149.882 133.967 150.504 134.605 150.953 135.445C151.409 136.285 151.637 137.311 151.637 138.521ZM144.088 138.521C144.088 139.238 144.166 139.84 144.322 140.328C144.479 140.816 144.723 141.184 145.055 141.432C145.387 141.679 145.82 141.803 146.354 141.803C146.881 141.803 147.307 141.679 147.633 141.432C147.965 141.184 148.206 140.816 148.355 140.328C148.512 139.84 148.59 139.238 148.59 138.521C148.59 137.799 148.512 137.2 148.355 136.725C148.206 136.243 147.965 135.882 147.633 135.641C147.301 135.4 146.868 135.279 146.334 135.279C145.546 135.279 144.973 135.549 144.615 136.09C144.264 136.63 144.088 137.441 144.088 138.521ZM158.531 144.195C157.451 144.195 156.529 144 155.768 143.609C155.006 143.212 154.426 142.6 154.029 141.773C153.632 140.947 153.434 139.889 153.434 138.6C153.434 137.265 153.658 136.178 154.107 135.338C154.563 134.492 155.191 133.87 155.992 133.473C156.799 133.076 157.734 132.877 158.795 132.877C159.55 132.877 160.201 132.952 160.748 133.102C161.301 133.245 161.783 133.417 162.193 133.619L161.314 135.924C160.846 135.735 160.41 135.582 160.006 135.465C159.602 135.341 159.199 135.279 158.795 135.279C158.274 135.279 157.841 135.403 157.496 135.65C157.151 135.891 156.894 136.256 156.725 136.744C156.555 137.232 156.471 137.844 156.471 138.58C156.471 139.303 156.562 139.902 156.744 140.377C156.926 140.852 157.19 141.207 157.535 141.441C157.88 141.669 158.3 141.783 158.795 141.783C159.413 141.783 159.964 141.702 160.445 141.539C160.927 141.37 161.396 141.135 161.852 140.836V143.385C161.396 143.671 160.917 143.876 160.416 144C159.921 144.13 159.293 144.195 158.531 144.195ZM168.893 132.877C169.902 132.877 170.771 133.072 171.5 133.463C172.229 133.847 172.792 134.407 173.189 135.143C173.587 135.878 173.785 136.777 173.785 137.838V139.283H166.744C166.777 140.123 167.027 140.784 167.496 141.266C167.971 141.741 168.629 141.979 169.469 141.979C170.165 141.979 170.803 141.907 171.383 141.764C171.962 141.62 172.558 141.406 173.17 141.119V143.424C172.63 143.691 172.063 143.886 171.471 144.01C170.885 144.133 170.172 144.195 169.332 144.195C168.238 144.195 167.268 143.993 166.422 143.59C165.582 143.186 164.921 142.571 164.439 141.744C163.964 140.917 163.727 139.876 163.727 138.619C163.727 137.343 163.941 136.282 164.371 135.436C164.807 134.583 165.413 133.945 166.188 133.521C166.962 133.092 167.864 132.877 168.893 132.877ZM168.912 134.996C168.333 134.996 167.851 135.182 167.467 135.553C167.089 135.924 166.871 136.507 166.812 137.301H170.992C170.986 136.858 170.904 136.464 170.748 136.119C170.598 135.774 170.37 135.501 170.064 135.299C169.765 135.097 169.381 134.996 168.912 134.996ZM170.504 128.678C170.693 128.977 170.937 129.309 171.236 129.674C171.542 130.038 171.855 130.393 172.174 130.738C172.493 131.083 172.77 131.376 173.004 131.617V131.881H171.031C170.68 131.673 170.296 131.425 169.879 131.139C169.469 130.846 169.091 130.52 168.746 130.162C168.395 130.52 168.02 130.842 167.623 131.129C167.226 131.409 166.855 131.66 166.51 131.881H164.527V131.617C164.775 131.37 165.058 131.077 165.377 130.738C165.696 130.393 166.005 130.038 166.305 129.674C166.604 129.309 166.845 128.977 167.027 128.678H170.504ZM175.787 142.604C175.787 141.992 175.953 141.562 176.285 141.314C176.624 141.067 177.031 140.943 177.506 140.943C177.968 140.943 178.365 141.067 178.697 141.314C179.036 141.562 179.205 141.992 179.205 142.604C179.205 143.189 179.036 143.613 178.697 143.873C178.365 144.133 177.968 144.264 177.506 144.264C177.031 144.264 176.624 144.133 176.285 143.873C175.953 143.613 175.787 143.189 175.787 142.604Z" fill="#D9D9D9"/>
<path d="M52.916 38.584C55.6797 38.584 57.6963 39.1797 58.9658 40.3711C60.2354 41.5527 60.8701 43.1836 60.8701 45.2637C60.8701 46.2012 60.7285 47.0996 60.4453 47.959C60.1621 48.8086 59.6982 49.5654 59.0537 50.2295C58.4189 50.8936 57.5693 51.4209 56.5049 51.8115C55.4404 52.1924 54.127 52.3828 52.5645 52.3828H50.6162V60H46.0752V38.584H52.916ZM52.6816 42.3047H50.6162V48.6621H52.1104C52.96 48.6621 53.6973 48.5498 54.3223 48.3252C54.9473 48.1006 55.4307 47.749 55.7725 47.2705C56.1143 46.792 56.2852 46.1768 56.2852 45.4248C56.2852 44.3701 55.9922 43.5889 55.4062 43.0811C54.8203 42.5635 53.9121 42.3047 52.6816 42.3047ZM73.7021 43.3154C73.9268 43.3154 74.1855 43.3301 74.4785 43.3594C74.7812 43.3789 75.0254 43.4082 75.2109 43.4473L74.874 47.6367C74.7275 47.5879 74.5176 47.5537 74.2441 47.5342C73.9805 47.5049 73.751 47.4902 73.5557 47.4902C72.9795 47.4902 72.418 47.5635 71.8711 47.71C71.334 47.8564 70.8506 48.0957 70.4209 48.4277C69.9912 48.75 69.6494 49.1797 69.3955 49.7168C69.1514 50.2441 69.0293 50.8936 69.0293 51.665V60H64.5615V43.623H67.9453L68.6045 46.377H68.8242C69.1465 45.8203 69.5469 45.3125 70.0254 44.8535C70.5137 44.3848 71.0654 44.0137 71.6807 43.7402C72.3057 43.457 72.9795 43.3154 73.7021 43.3154ZM84.8936 43.2861C87.0908 43.2861 88.7754 43.7646 89.9473 44.7217C91.1191 45.6787 91.7051 47.1338 91.7051 49.0869V60H88.585L87.7207 57.7734H87.6035C87.1348 58.3594 86.6562 58.8379 86.168 59.209C85.6797 59.5801 85.1182 59.8535 84.4834 60.0293C83.8486 60.2051 83.0771 60.293 82.1689 60.293C81.2021 60.293 80.333 60.1074 79.5615 59.7363C78.7998 59.3652 78.1992 58.7988 77.7598 58.0371C77.3203 57.2656 77.1006 56.2891 77.1006 55.1074C77.1006 53.3691 77.7109 52.0898 78.9316 51.2695C80.1523 50.4395 81.9834 49.9805 84.4248 49.8926L87.2666 49.8047V49.0869C87.2666 48.2275 87.042 47.5977 86.5928 47.1973C86.1436 46.7969 85.5186 46.5967 84.7178 46.5967C83.9268 46.5967 83.1504 46.709 82.3887 46.9336C81.627 47.1582 80.8652 47.4414 80.1035 47.7832L78.624 44.7656C79.4932 44.3066 80.4648 43.9453 81.5391 43.6816C82.623 43.418 83.7412 43.2861 84.8936 43.2861ZM87.2666 52.4121L85.5381 52.4707C84.0928 52.5098 83.0869 52.7686 82.5205 53.2471C81.9639 53.7256 81.6855 54.3555 81.6855 55.1367C81.6855 55.8203 81.8857 56.3086 82.2861 56.6016C82.6865 56.8848 83.209 57.0264 83.8535 57.0264C84.8105 57.0264 85.6162 56.7432 86.2705 56.1768C86.9346 55.6104 87.2666 54.8047 87.2666 53.7598V52.4121ZM103.219 56.7334C103.707 56.7334 104.181 56.6846 104.64 56.5869C105.108 56.4893 105.572 56.3672 106.031 56.2207V59.5459C105.553 59.7607 104.957 59.9365 104.244 60.0732C103.541 60.2197 102.77 60.293 101.93 60.293C100.953 60.293 100.074 60.1367 99.293 59.8242C98.5215 59.502 97.9111 58.9502 97.4619 58.1689C97.0225 57.3779 96.8027 56.2793 96.8027 54.873V46.9775H94.6641V45.0879L97.125 43.5938L98.4141 40.1367H101.271V43.623H105.855V46.9775H101.271V54.873C101.271 55.498 101.446 55.9668 101.798 56.2793C102.159 56.582 102.633 56.7334 103.219 56.7334ZM113.824 43.623V60H109.356V43.623H113.824ZM111.598 37.207C112.262 37.207 112.833 37.3633 113.312 37.6758C113.79 37.9785 114.029 38.5498 114.029 39.3896C114.029 40.2197 113.79 40.7959 113.312 41.1182C112.833 41.4307 112.262 41.5869 111.598 41.5869C110.924 41.5869 110.348 41.4307 109.869 41.1182C109.4 40.7959 109.166 40.2197 109.166 39.3896C109.166 38.5498 109.4 37.9785 109.869 37.6758C110.348 37.3633 110.924 37.207 111.598 37.207ZM125.177 60.293C123.556 60.293 122.174 60 121.031 59.4141C119.889 58.8184 119.02 57.9004 118.424 56.6602C117.828 55.4199 117.53 53.833 117.53 51.8994C117.53 49.8975 117.867 48.2666 118.541 47.0068C119.225 45.7373 120.167 44.8047 121.368 44.209C122.579 43.6133 123.98 43.3154 125.572 43.3154C126.705 43.3154 127.682 43.4277 128.502 43.6523C129.332 43.8672 130.055 44.126 130.67 44.4287L129.352 47.8857C128.648 47.6025 127.994 47.373 127.389 47.1973C126.783 47.0117 126.178 46.9189 125.572 46.9189C124.791 46.9189 124.142 47.1045 123.624 47.4756C123.106 47.8369 122.721 48.3838 122.467 49.1162C122.213 49.8486 122.086 50.7666 122.086 51.8701C122.086 52.9541 122.223 53.8525 122.496 54.5654C122.77 55.2783 123.165 55.8105 123.683 56.1621C124.2 56.5039 124.83 56.6748 125.572 56.6748C126.5 56.6748 127.325 56.5527 128.048 56.3086C128.771 56.0547 129.474 55.7031 130.157 55.2539V59.0771C129.474 59.5068 128.756 59.8145 128.004 60C127.262 60.1953 126.319 60.293 125.177 60.293ZM138.434 43.623V60H133.966V43.623H138.434ZM136.207 37.207C136.871 37.207 137.442 37.3633 137.921 37.6758C138.399 37.9785 138.639 38.5498 138.639 39.3896C138.639 40.2197 138.399 40.7959 137.921 41.1182C137.442 41.4307 136.871 41.5869 136.207 41.5869C135.533 41.5869 134.957 41.4307 134.479 41.1182C134.01 40.7959 133.775 40.2197 133.775 39.3896C133.775 38.5498 134.01 37.9785 134.479 37.6758C134.957 37.3633 135.533 37.207 136.207 37.207ZM148.321 60.293C146.495 60.293 145.006 59.5801 143.854 58.1543C142.711 56.7188 142.14 54.6143 142.14 51.8408C142.14 49.0381 142.721 46.9189 143.883 45.4834C145.045 44.0381 146.563 43.3154 148.438 43.3154C149.22 43.3154 149.908 43.4229 150.504 43.6377C151.1 43.8525 151.612 44.1406 152.042 44.502C152.481 44.8633 152.853 45.2686 153.155 45.7178H153.302C153.243 45.4053 153.17 44.9463 153.082 44.3408C153.004 43.7256 152.965 43.0957 152.965 42.4512V37.207H157.447V60H154.02L153.155 57.876H152.965C152.682 58.3252 152.325 58.7354 151.896 59.1064C151.476 59.4678 150.973 59.7559 150.387 59.9707C149.801 60.1855 149.112 60.293 148.321 60.293ZM149.889 56.7334C151.109 56.7334 151.969 56.3721 152.467 55.6494C152.975 54.917 153.243 53.8184 153.272 52.3535V51.8701C153.272 50.2783 153.028 49.0625 152.54 48.2227C152.052 47.373 151.144 46.9482 149.815 46.9482C148.829 46.9482 148.058 47.373 147.501 48.2227C146.944 49.0723 146.666 50.2979 146.666 51.8994C146.666 53.501 146.944 54.707 147.501 55.5176C148.067 56.3281 148.863 56.7334 149.889 56.7334ZM168.829 43.2861C171.026 43.2861 172.711 43.7646 173.883 44.7217C175.055 45.6787 175.641 47.1338 175.641 49.0869V60H172.521L171.656 57.7734H171.539C171.07 58.3594 170.592 58.8379 170.104 59.209C169.615 59.5801 169.054 59.8535 168.419 60.0293C167.784 60.2051 167.013 60.293 166.104 60.293C165.138 60.293 164.269 60.1074 163.497 59.7363C162.735 59.3652 162.135 58.7988 161.695 58.0371C161.256 57.2656 161.036 56.2891 161.036 55.1074C161.036 53.3691 161.646 52.0898 162.867 51.2695C164.088 50.4395 165.919 49.9805 168.36 49.8926L171.202 49.8047V49.0869C171.202 48.2275 170.978 47.5977 170.528 47.1973C170.079 46.7969 169.454 46.5967 168.653 46.5967C167.862 46.5967 167.086 46.709 166.324 46.9336C165.562 47.1582 164.801 47.4414 164.039 47.7832L162.56 44.7656C163.429 44.3066 164.4 43.9453 165.475 43.6816C166.559 43.418 167.677 43.2861 168.829 43.2861ZM171.202 52.4121L169.474 52.4707C168.028 52.5098 167.022 52.7686 166.456 53.2471C165.899 53.7256 165.621 54.3555 165.621 55.1367C165.621 55.8203 165.821 56.3086 166.222 56.6016C166.622 56.8848 167.145 57.0264 167.789 57.0264C168.746 57.0264 169.552 56.7432 170.206 56.1768C170.87 55.6104 171.202 54.8047 171.202 53.7598V52.4121ZM185.44 60.293C183.614 60.293 182.125 59.5801 180.973 58.1543C179.83 56.7188 179.259 54.6143 179.259 51.8408C179.259 49.0381 179.84 46.9189 181.002 45.4834C182.164 44.0381 183.683 43.3154 185.558 43.3154C186.339 43.3154 187.027 43.4229 187.623 43.6377C188.219 43.8525 188.731 44.1406 189.161 44.502C189.601 44.8633 189.972 45.2686 190.274 45.7178H190.421C190.362 45.4053 190.289 44.9463 190.201 44.3408C190.123 43.7256 190.084 43.0957 190.084 42.4512V37.207H194.566V60H191.139L190.274 57.876H190.084C189.801 58.3252 189.444 58.7354 189.015 59.1064C188.595 59.4678 188.092 59.7559 187.506 59.9707C186.92 60.1855 186.231 60.293 185.44 60.293ZM187.008 56.7334C188.229 56.7334 189.088 56.3721 189.586 55.6494C190.094 54.917 190.362 53.8184 190.392 52.3535V51.8701C190.392 50.2783 190.147 49.0625 189.659 48.2227C189.171 47.373 188.263 46.9482 186.935 46.9482C185.948 46.9482 185.177 47.373 184.62 48.2227C184.063 49.0723 183.785 50.2979 183.785 51.8994C183.785 53.501 184.063 54.707 184.62 55.5176C185.187 56.3281 185.982 56.7334 187.008 56.7334ZM205.992 43.3154C207.506 43.3154 208.81 43.6084 209.903 44.1943C210.997 44.7705 211.842 45.6104 212.438 46.7139C213.033 47.8174 213.331 49.165 213.331 50.7568V52.9248H202.77C202.818 54.1846 203.194 55.1758 203.897 55.8984C204.61 56.6113 205.597 56.9678 206.856 56.9678C207.901 56.9678 208.858 56.8604 209.728 56.6455C210.597 56.4307 211.49 56.1084 212.408 55.6787V59.1357C211.598 59.5361 210.748 59.8291 209.859 60.0146C208.98 60.2002 207.911 60.293 206.651 60.293C205.011 60.293 203.556 59.9902 202.286 59.3848C201.026 58.7793 200.035 57.8564 199.312 56.6162C198.6 55.376 198.243 53.8135 198.243 51.9287C198.243 50.0146 198.565 48.4229 199.21 47.1533C199.864 45.874 200.772 44.917 201.935 44.2822C203.097 43.6377 204.449 43.3154 205.992 43.3154ZM206.021 46.4941C205.152 46.4941 204.43 46.7725 203.854 47.3291C203.287 47.8857 202.96 48.7598 202.872 49.9512H209.142C209.132 49.2871 209.01 48.6963 208.775 48.1787C208.551 47.6611 208.209 47.251 207.75 46.9482C207.301 46.6455 206.725 46.4941 206.021 46.4941Z" fill="black"/>
<path d="M61 206.5H129.5H197V230L148 261V287.5L112 298.5V261L61 230V206.5Z" fill="#D9D9D9"/>
<path d="M63 200C63 194.477 67.4772 190 73 190C78.5228 190 83 194.477 83 200V203H63V200Z" fill="#D9D9D9"/>
<rect x="68" y="178" width="10" height="10" rx="5" fill="#D9D9D9"/>
<path d="M119 200C119 194.477 123.477 190 129 190C134.523 190 139 194.477 139 200V203H119V200Z" fill="#D9D9D9"/>
<rect x="124" y="178" width="10" height="10" rx="5" fill="#D9D9D9"/>
<path d="M119 329.4C119 322.773 124.373 317.4 131 317.4C137.627 317.4 143 322.773 143 329.4V333H119V329.4Z" fill="#F598C3"/>
<rect x="125" y="303" width="12" height="12" rx="6" fill="#F598C3"/>
<path d="M175 200C175 194.477 179.477 190 185 190C190.523 190 195 194.477 195 200V203H175V200Z" fill="#D9D9D9"/>
<rect x="180" y="178" width="10" height="10" rx="5" fill="#D9D9D9"/>
<path d="M147 200C147 194.477 151.477 190 157 190C162.523 190 167 194.477 167 200V203H147V200Z" fill="#D9D9D9"/>
<rect x="152" y="178" width="10" height="10" rx="5" fill="#D9D9D9"/>
<path d="M91 200C91 194.477 95.4772 190 101 190C106.523 190 111 194.477 111 200V203H91V200Z" fill="#D9D9D9"/>
<rect x="96" y="178" width="10" height="10" rx="5" fill="#D9D9D9"/>
</svg>
